HIERARCHY
ROOT root
{
	OFFSET	0	13.1	24.9
	CHANNELS 6  Xposition Yposition Zposition Xrotation Yrotation Zrotation
	JOINT spine_1
	{
		OFFSET	0	9.99999	0
		CHANNELS 3  Xrotation Yrotation Zrotation
		JOINT spine_2
		{
			OFFSET	0	112	-10
			CHANNELS 3  Xrotation Yrotation Zrotation
			JOINT spine_3
			{
				OFFSET	0	206.5	19.3
				CHANNELS 3  Xrotation Yrotation Zrotation
				JOINT spine_4
				{
					OFFSET	0	110.4	14.6
					CHANNELS 3  Xrotation Yrotation Zrotation
					JOINT neck_1
					{
						OFFSET	0	71.8	-50.3
						CHANNELS 3  Xrotation Yrotation Zrotation
						JOINT neck_2
						{
							OFFSET	0	86.2	-25.8
							CHANNELS 3  Xrotation Yrotation Zrotation
							JOINT head_ee
							{
								OFFSET	0	179.8	-8.7
								CHANNELS 3  Xrotation Yrotation Zrotation
								End Site
								{
									OFFSET	1	0	0
								}
							}
						}
					}
					JOINT left_clavicle
					{
						OFFSET	-43.2	22.4	-70.8
						CHANNELS 3  Xrotation Yrotation Zrotation
						JOINT left_shoulder
						{
							OFFSET	-93.9	-5.79999	48.7
							CHANNELS 3  Xrotation Yrotation Zrotation
							JOINT left_elbow
							{
								OFFSET	-291.4	-30.8	15.2
								CHANNELS 3  Xrotation Yrotation Zrotation
								JOINT left_lowarm_twist
								{
									OFFSET	-110.7	-3.89999	13.6
									CHANNELS 3  Xrotation Yrotation Zrotation
									JOINT left_hand
									{
										OFFSET	-110.7	-3.89999	13.6
										CHANNELS 3  Xrotation Yrotation Zrotation
										JOINT left_ee
										{
											OFFSET	-80.8	-5.10001	12.1
											CHANNELS 3  Xrotation Yrotation Zrotation
											End Site
											{
												OFFSET	1	0	0
											}
										}
									}
								}
							}
						}
					}
					JOINT right_clavicle
					{
						OFFSET	43.2	22.4	-70.8
						CHANNELS 3  Xrotation Yrotation Zrotation
						JOINT right_shoulder
						{
							OFFSET	93.9	-5.79999	48.7
							CHANNELS 3  Xrotation Yrotation Zrotation
							JOINT right_elbow
							{
								OFFSET	291.4	-30.8	15.2
								CHANNELS 3  Xrotation Yrotation Zrotation
								JOINT right_lowarm_twist
								{
									OFFSET	110.7	-3.89999	13.6
									CHANNELS 3  Xrotation Yrotation Zrotation
									JOINT right_hand
									{
										OFFSET	110.7	-3.89999	13.6
										CHANNELS 3  Xrotation Yrotation Zrotation
										JOINT right_ee
										{
											OFFSET	80.8	-5.10001	12.1
											CHANNELS 3  Xrotation Yrotation Zrotation
											End Site
											{
												OFFSET	1	0	0
											}
										}
									}
								}
							}
						}
					}
				}
			}
		}
	}
	JOINT left_hip
	{
		OFFSET	-82.8	-127.5	0.300001
		CHANNELS 3  Xrotation Yrotation Zrotation
		JOINT left_knee
		{
			OFFSET	-28.2	-396.7	2.2
			CHANNELS 3  Xrotation Yrotation Zrotation
			JOINT left_ankle
			{
				OFFSET	-11.7	-411.3	35.4
				CHANNELS 3  Xrotation Yrotation Zrotation
				JOINT left_toes
				{
					OFFSET	0	-60	-88.6
					CHANNELS 3  Xrotation Yrotation Zrotation
					JOINT left_foot_ee
					{
						OFFSET	-22.5	-16.5	-42.2
						CHANNELS 3  Xrotation Yrotation Zrotation
						End Site
						{
							OFFSET	1	0	0
						}
					}
				}
			}
		}
	}
	JOINT right_hip
	{
		OFFSET	82.8	-127.5	0.300001
		CHANNELS 3  Xrotation Yrotation Zrotation
		JOINT right_knee
		{
			OFFSET	28.2	-396.7	2.2
			CHANNELS 3  Xrotation Yrotation Zrotation
			JOINT right_ankle
			{
				OFFSET	11.7	-411.3	35.4
				CHANNELS 3  Xrotation Yrotation Zrotation
				JOINT right_toes
				{
					OFFSET	0	-60	-88.6
					CHANNELS 3  Xrotation Yrotation Zrotation
					JOINT right_foot_ee
					{
						OFFSET	22.5	-16.5	-42.2
						CHANNELS 3  Xrotation Yrotation Zrotation
						End Site
						{
							OFFSET	1	0	0
						}
					}
				}
			}
		}
	}
}
MOTION
Frames: 15
Frame Time: 0.02
3786.17 663.83 -280.406 13.1889 47.1356 -5.32076 -2.39907 -0.197034 -0.715758 -2.3988 -0.151091 -0.726845 -2.3965 0.0360847 -0.741504 -2.39726 -0.0814717 -0.737898 -12.8238 11.4828 -2.32281 -13.1671 23.2881 1.27473 -0.0 0.0 -0.0 9.57039 -10.9201 18.8786 9.10894 1.92883 63.6123 0.957614 -25.378 0.215619 10.6489 0.251757 -1.33505 5.20664 15.5166 42.9529 -0.0 0.0 -0.0 12.5072 23.0302 -24.8525 -22.0698 -2.49497 -61.3606 0.936939 24.8971 -0.206836 2.07403 -0.0684447 0.256045 1.87037 20.7076 -3.57154 0.0 0.0 0.0 -13.283 -21.9966 8.95575 -3.13855 0.116441 0.467533 39.0467 19.5011 -4.92828 1.56126 -0.0 -0.0 -0.0 0.0 -0.0 8.35799 0.207377 -3.1947 -22.7071 -0.253671 -3.4526 15.3995 -27.0636 2.27593 -0.742467 0.0 0.0 0.0 0.0 0.0 
3771.01 664.839 -283.805 13.605 48.0866 -6.26738 -2.35387 -0.264041 -0.609934 -2.35369 -0.224695 -0.625499 -2.35093 -0.0611223 -0.661815 -2.3515 -0.164874 -0.643857 -12.9136 9.90644 -2.39811 -13.1697 20.3406 0.713679 -0.0 0.0 -0.0 8.71684 -9.19927 17.0678 10.6528 -1.91719 66.0189 1.28649 -32.5074 0.375082 10.9309 0.25503 -1.37093 5.34914 17.9535 44.7719 -0.0 0.0 -0.0 12.1997 22.3084 -24.2098 -22.3623 -3.17194 -61.638 0.874365 23.4189 -0.181226 2.69764 -0.0872058 0.333491 1.71088 20.418 -2.65118 0.0 0.0 0.0 -14.8812 -22.1497 9.82651 -3.28258 0.121168 0.489132 39.4653 19.8903 -4.97627 1.85946 -0.0 -0.0 -0.0 0.0 -0.0 10.2735 0.0023991 -3.23725 -21.3657 -0.276908 -3.24807 14.046 -27.9561 2.09762 -1.03173 0.0 0.0 0.0 0.0 0.0 
3759.61 663.809 -286.68 14.8821 49.3568 -8.1516 -2.47474 -0.278557 -0.347342 -2.47471 -0.255891 -0.364363 -2.47296 -0.155747 -0.417112 -2.47314 -0.219667 -0.387281 -13.1099 8.79612 -2.32154 -13.3172 18.1843 0.468099 -0.0 0.0 -0.0 8.13206 -7.96794 15.8461 11.4518 -4.58302 68.2455 1.57102 -37.8887 0.539271 11.1738 0.257709 -1.40184 5.46071 19.4342 46.0687 -0.0 0.0 -0.0 12.2329 21.6988 -24.3383 -22.7245 -3.84365 -62.8426 0.81787 22.0551 -0.159389 3.17501 -0.100997 0.392909 1.58885 20.163 -1.96091 0.0 0.0 0.0 -16.0835 -21.9141 10.6752 -3.37742 0.12425 0.503361 39.7615 20.3508 -5.01466 2.03502 -0.0 -0.0 -0.0 0.0 -0.0 11.7758 -0.182263 -3.36725 -20.3174 -0.291731 -3.0879 13.0882 -28.3872 1.96645 -1.19638 0.0 0.0 0.0 0.0 0.0 
3753.1 662.134 -288.082 14.9917 49.6788 -8.96295 -2.53498 -0.27312 -0.161351 -2.535 -0.2623 -0.178403 -2.53417 -0.208583 -0.239002 -2.53417 -0.243711 -0.203061 -13.2582 7.89158 -2.22651 -13.4283 16.4057 0.295157 -0.0 0.0 -0.0 7.6042 -7.81515 14.7352 12.0299 -6.24138 69.0179 1.80764 -41.8389 0.691023 11.6637 0.26271 -1.46422 5.54925 20.1336 47.0076 -0.0 0.0 -0.0 12.1511 21.3145 -24.1817 -22.9384 -4.31856 -63.5448 0.778805 21.0964 -0.145023 3.47792 -0.10949 0.430671 1.49854 19.9866 -1.44366 0.0 0.0 0.0 -16.824 -21.6018 11.2005 -3.01052 0.112194 0.448344 40.0513 21.4768 -5.06974 2.24406 -0.0 -0.0 -0.0 0.0 -0.0 12.5748 -0.164236 -3.30645 -19.6922 -0.299173 -2.99227 12.3916 -28.0534 1.86204 -1.3089 0.0 0.0 0.0 0.0 0.0 
3751.76 663.048 -291.937 14.1836 50.3245 -8.35971 -2.5757 -0.282194 -0.0391975 -2.57575 -0.279128 -0.0570749 -2.5755 -0.255491 -0.126073 -2.57542 -0.272195 -0.0841409 -13.3457 7.24233 -2.21396 -13.4906 15.1628 0.114305 -0.0 0.0 -0.0 7.26285 -8.31613 14.0029 12.4612 -7.42438 69.5506 1.99452 -44.6499 0.819096 12.0093 0.265917 -1.50824 5.61716 20.3886 47.688 -0.0 0.0 -0.0 12.1903 21.2209 -24.2792 -23.0174 -4.64098 -64.0505 0.732433 19.9421 -0.128768 3.77644 -0.117665 0.467926 1.4271 19.7478 -1.07868 0.0 0.0 0.0 -17.3637 -21.3883 11.6038 -2.74276 0.103172 0.40824 40.0489 22.4304 -5.09513 2.3836 -0.0 -0.0 -0.0 0.0 -0.0 13.9482 -0.228204 -3.92143 -18.6655 -0.309132 -2.83505 11.8838 -27.6034 1.78358 -1.38919 0.0 0.0 0.0 0.0 0.0 
3745.25 660.578 -293.156 13.9927 50.7183 -8.69017 -2.63455 -0.23541 0.0161185 -2.63458 -0.235959 0.00110597 -2.63462 -0.228447 -0.0590749 -2.63455 -0.23491 -0.0222544 -13.4047 6.79309 -2.19034 -13.533 14.2931 0.00284864 -0.0 0.0 -0.0 7.01154 -8.66617 13.4628 12.5841 -8.24488 69.7658 2.133 -46.5713 0.91807 12.2665 0.268132 -1.54102 5.66369 20.549 48.1563 -0.0 0.0 -0.0 12.2961 21.342 -24.5132 -23.0227 -4.8479 -64.42 0.701149 19.1536 -0.1183 3.98588 -0.123284 0.49409 1.37641 19.5694 -0.823224 0.0 0.0 0.0 -17.713 -21.2404 11.8507 -2.38157 0.0907067 0.35421 40.034 23.1239 -5.11341 2.47484 -0.0 -0.0 -0.0 0.0 -0.0 14.9071 -0.242111 -4.27942 -17.7913 -0.31539 -2.70107 11.4983 -27.2623 1.72421 -1.44643 0.0 0.0 0.0 0.0 0.0 
3736.8 659.39 -296.167 14.8223 51.032 -9.83276 -2.72086 -0.184957 0.0904793 -2.72087 -0.19034 0.0785266 -2.72117 -0.20411 0.0271077 -2.72111 -0.197267 0.0590029 -13.5288 6.5268 -2.02909 -13.6497 13.6866 0.0877592 -0.0 0.0 -0.0 6.74907 -8.93261 12.9013 12.2118 -8.53753 69.3768 2.21661 -47.6692 0.97934 12.4802 0.26986 -1.56826 5.69838 20.5914 48.4966 -0.0 0.0 -0.0 12.2266 21.5141 -24.3391 -23.2986 -5.118 -64.6937 0.667283 18.2915 -0.107429 4.18726 -0.128598 0.519267 1.32284 19.3668 -0.559042 0.0 0.0 0.0 -18.1356 -21.8363 11.8002 -2.14075 0.0822052 0.31823 39.8529 23.6311 -5.11114 2.49158 -0.0 -0.0 -0.0 0.0 -0.0 17.7994 -0.317571 -4.54309 -16.294 -0.321356 -2.47142 11.1665 -26.9612 1.67314 -1.59827 0.0 0.0 0.0 0.0 0.0 
3735.52 659.707 -296.878 13.7208 50.7095 -8.62951 -2.72691 -0.159459 0.091148 -2.72692 -0.164935 0.0808165 -2.72717 -0.180145 0.0358147 -2.72714 -0.172228 0.0638159 -13.1695 6.79914 -1.3372 -13.291 13.7732 0.787501 -0.0 0.0 -0.0 6.70093 -11.0353 12.7079 13.8351 -7.4793 68.2018 2.22997 -47.8404 0.989226 12.9597 0.273367 -1.6294 5.69111 19.9422 48.3283 -0.0 0.0 -0.0 12.7181 21.4001 -25.4833 -23.5296 -5.44305 -64.3826 0.617944 17.0201 -0.0924638 4.18856 -0.128632 0.519429 1.25633 18.8333 -0.356135 0.0 0.0 0.0 -18.1582 -22.2934 12.0214 -1.18259 0.0468844 0.175426 39.633 23.9958 -5.10108 2.50923 -0.0 -0.0 -0.0 0.0 -0.0 19.2963 -0.054329 -5.66532 -13.5444 -0.316679 -2.04962 10.8108 -25.1583 1.605 -1.58452 0.0 0.0 0.0 0.0 0.0 
3731.72 653.786 -299.94 12.1933 50.1812 -7.60842 -2.77272 -0.133248 0.20154 -2.77271 -0.145802 0.192653 -2.77322 -0.190453 0.148665 -2.77321 -0.164584 0.176877 -12.9251 6.99622 -0.849126 -13.0457 13.8381 1.2831 -0.0 0.0 -0.0 6.90896 -12.4186 13.082 14.4786 -6.60434 67.3471 2.22029 -47.7165 0.98206 13.2984 0.275536 -1.6726 5.68355 19.4087 48.1681 -0.0 0.0 -0.0 13.1972 21.2555 -26.6093 -23.3618 -5.54341 -64.8367 0.586858 16.2099 -0.0835748 4.18936 -0.128653 0.519529 1.19646 18.3713 -0.163717 0.0 0.0 0.0 -17.9449 -22.6189 12.1414 0.0263039 -0.00108411 -0.00389099 39.5704 24.2354 -5.10237 2.52226 -0.0 -0.0 -0.0 0.0 -0.0 20.2741 0.229422 -6.47394 -11.6334 -0.30151 -1.75681 10.5592 -23.7061 1.55712 -1.55302 0.0 0.0 0.0 0.0 0.0 
3721.8 655.163 -306.396 11.858 49.2688 -7.70233 -2.82024 -0.11805 0.273254 -2.82021 -0.135199 0.265188 -2.82083 -0.199049 0.221321 -2.82086 -0.161598 0.249979 -12.6353 6.90143 -0.838507 -12.7462 13.6435 1.22885 -0.0 0.0 -0.0 7.28 -14.3524 13.7745 15.5648 -5.5823 65.797 2.2144 -47.6407 0.977703 14.0898 0.279608 -1.77361 5.68418 18.8426 48.0756 -0.0 0.0 -0.0 13.2375 21.8557 -26.6528 -23.3498 -5.64119 -65.009 0.565026 15.637 -0.0775852 4.27085 -0.130777 0.529721 1.12811 17.6768 -0.0162256 0.0 0.0 0.0 -18.3354 -22.9498 12.977 0.800838 -0.0338048 -0.118242 39.4472 24.4142 -5.096 2.53028 -0.0 -0.0 -0.0 0.0 -0.0 21.6085 0.626699 -6.64715 -9.82732 -0.278207 -1.48068 10.3047 -22.3564 1.51115 -1.54982 0.0 0.0 0.0 0.0 0.0 
3716.9 646.469 -312.534 11.4667 49.1212 -7.70286 -2.84649 -0.0601789 0.417744 -2.84639 -0.0866388 0.413068 -2.84695 -0.190466 0.376636 -2.84712 -0.128594 0.401989 -12.4055 6.85702 -0.803017 -12.51 13.5303 1.22167 -0.0 0.0 -0.0 7.50611 -15.4977 14.1971 16.3479 -4.71055 64.3001 2.2101 -47.5853 0.97453 14.6282 0.281582 -1.84235 5.68138 18.4144 47.9697 -0.0 0.0 -0.0 13.2496 22.2652 -26.6451 -23.3704 -5.73588 -65.1215 0.54918 15.219 -0.0733695 4.34988 -0.132823 0.539609 1.07773 17.1763 0.0988991 0.0 0.0 0.0 -18.5217 -23.1916 13.6321 1.33686 -0.0573548 -0.197123 39.3596 24.5511 -5.09177 2.53576 -0.0 -0.0 -0.0 0.0 -0.0 22.5062 1.00656 -6.89228 -8.55208 -0.256514 -1.2862 10.145 -21.3831 1.48222 -1.53629 0.0 0.0 0.0 0.0 0.0 
3709.27 647.529 -314.403 10.5756 49.2614 -7.44088 -2.95812 0.0679189 0.617706 -2.9579 0.0284758 0.620776 -2.95733 -0.134121 0.606783 -2.95784 -0.0366096 0.620349 -12.2604 6.84961 -0.723703 -12.3611 13.4616 1.27795 -0.0 0.0 -0.0 7.74077 -16.0736 14.6722 16.5625 -4.00574 63.1058 2.20155 -47.4748 0.968223 15.0052 0.282578 -1.89048 5.6789 18.0519 47.8761 -0.0 0.0 -0.0 13.2277 22.5761 -26.5656 -23.2965 -5.7595 -65.2378 0.533785 14.8114 -0.0693811 4.45074 -0.135415 0.552232 1.03548 16.7929 0.212406 0.0 0.0 0.0 -18.6706 -23.3663 14.0707 1.70212 -0.0738254 -0.250748 39.3507 24.5572 -5.0911 2.54079 -0.0 -0.0 -0.0 0.0 -0.0 23.1577 1.2712 -7.08357 -7.2751 -0.230459 -1.09198 10.0323 -20.6424 1.46188 -1.50855 0.0 0.0 0.0 0.0 0.0 
3697.18 646.252 -316.11 10.7896 49.2842 -7.97052 -3.08877 0.156402 0.757425 -3.08846 0.10789 0.765842 -3.08656 -0.0969403 0.767305 -3.08738 0.025454 0.772985 -12.1619 6.86924 -0.677996 -12.2609 13.4666 1.31569 -0.0 0.0 -0.0 7.97846 -16.2992 15.1766 16.4995 -3.26699 62.1901 2.18638 -47.2775 0.957062 15.2947 0.283129 -1.92746 5.67506 17.7628 47.7817 -0.0 0.0 -0.0 13.2686 22.7204 -26.6476 -23.2202 -5.78526 -65.692 0.521786 14.4927 -0.066346 4.53034 -0.137445 0.562198 0.996988 16.4683 0.327241 0.0 0.0 0.0 -18.7329 -23.4759 14.395 1.95958 -0.0856406 -0.288484 39.3414 24.524 -5.08917 2.54481 -0.0 -0.0 -0.0 0.0 -0.0 23.9189 1.61548 -6.95504 -6.10028 -0.202669 -0.913836 9.95234 -20.1001 1.44756 -1.50121 0.0 0.0 0.0 0.0 0.0 
3689.86 644.798 -318.387 9.81287 49.6315 -7.4324 -3.17518 0.211963 0.84217 -3.1748 0.157946 0.85395 -3.17185 -0.0730538 0.865355 -3.17288 0.0645244 0.866033 -12.0979 6.88138 -0.648937 -12.1958 13.469 1.33942 -0.0 0.0 -0.0 8.13036 -16.6658 15.486 16.6976 -2.63866 61.2227 2.16233 -46.9616 0.939439 15.4887 0.283394 -1.95224 5.66732 17.5246 47.6585 -0.0 0.0 -0.0 13.3222 23.0063 -26.7455 -22.7345 -5.77387 -66.1118 0.513496 14.2719 -0.0642867 4.62215 -0.139769 0.573695 0.957705 16.2039 0.474199 0.0 0.0 0.0 -18.7282 -23.5607 14.6823 2.13582 -0.0938266 -0.314287 39.3818 24.4952 -5.09218 2.56518 -0.0 -0.0 -0.0 0.0 -0.0 24.5452 1.80883 -6.97768 -5.17009 -0.178075 -0.773205 9.89982 -19.6384 1.43771 -1.47974 0.0 0.0 0.0 0.0 0.0 
3680.35 643.411 -324.558 9.20434 49.9988 -7.16876 -3.2282 0.346147 0.833121 -3.22786 0.292434 0.853456 -3.22283 0.0560099 0.900423 -3.2239 0.197506 0.88028 -10.8433 6.88971 -0.768945 -10.9155 13.5205 1.07646 -0.0 0.0 -0.0 8.21859 -16.9648 15.6606 16.0656 -1.77888 60.3038 2.04947 -45.4282 0.85798 15.6258 0.28353 -1.96975 5.6836 16.6659 47.6322 -0.0 0.0 -0.0 13.3554 24.6463 -26.6549 -21.7575 -5.63345 -65.9495 0.51406 14.2869 -0.0644261 5.54079 -0.162006 0.688936 0.819398 15.1018 0.920391 0.0 0.0 0.0 -18.8235 -23.6556 15.0253 1.18974 -0.0508174 -0.175493 39.2518 23.81 -5.05877 2.57887 -0.0 -0.0 -0.0 0.0 -0.0 26.3645 2.26798 -6.4762 -3.9321 -0.141807 -0.586678 9.66621 -19.311 1.4032 -1.72926 0.0 0.0 0.0 0.0 0.0 
